PathFileType        4      (X/Y/Z)      C:\Users\pc\Desktop\IMUTRC\Sujet_08\Sujet_08_Tpose.trc         
DataRate	CameraRate	NumFrames	NumMarkers	Units	OrigDataRate	OrigDataStartFrame	OrigNumFrames
60.0	60.0	4	64	mm	60.0	143	163
Frame#	Time	pHipOrigin			pRightASI			pLeftASI			pRightCSI			pLeftCSI			pRightIschialTub			pLeftIschialTub			pSacrum			pL5SpinalProcess			pL3SpinalProcess			pT12SpinalProcess			pIJ			pT4SpinalProcess			pT8SpinalProcess			pPX			pC7SpinalProcess			pTopOfHead			pRightAuricularis			pLeftAuricularis			pBackOfHead			pRightAcromion			pLeftAcromion			pRightArmLatEpicondyle			pRightArmMedEpicondyle			pLeftArmLatEpicondyle			pLeftArmMedEpicondyle			pRightUlnarStyloid			pRightRadialStyloid			pRightOlecranon			pLeftUlnarStyloid			pLeftRadialStyloid			pLeftOlecranon			pRightTopOfHand			pRightPinky			pRightBallHand			pLeftTopOfHand			pLeftPinky			pLeftBallHand			pRightGreaterTrochanter			pRightKneeLatEpicondyle			pRightKneeMedEpicondyle			pRightPatella			pLeftGreaterTrochanter			pLeftKneeLatEpicondyle			pLeftKneeMedEpicondyle			pLeftPatella			pRightTibialTub			pRightLatMalleolus			pRightMedMalleolus			pLeftTibialTub			pLeftLatMalleolus			pLeftMedMalleolus			pRightHeelFoot			pRightFirstMetatarsal			pRightFifthMetatarsal			pRightPivotFoot			pRightHeelCenter			pRightToe			pLeftHeelFoot			pLeftFirstMetatarsal			pLeftFifthMetatarsal			pLeftPivotFoot			pLeftHeelCenter			pLeftToe			
		X1	Y1	Z1	X2	Y2	Z2	X3	Y3	Z3	X4	Y4	Z4	X5	Y5	Z5	X6	Y6	Z6	X7	Y7	Z7	X8	Y8	Z8	X9	Y9	Z9	X10	Y10	Z10	X11	Y11	Z11	X12	Y12	Z12	X13	Y13	Z13	X14	Y14	Z14	X15	Y15	Z15	X16	Y16	Z16	X17	Y17	Z17	X18	Y18	Z18	X19	Y19	Z19	X20	Y20	Z20	X21	Y21	Z21	X22	Y22	Z22	X23	Y23	Z23	X24	Y24	Z24	X25	Y25	Z25	X26	Y26	Z26	X27	Y27	Z27	X28	Y28	Z28	X29	Y29	Z29	X30	Y30	Z30	X31	Y31	Z31	X32	Y32	Z32	X33	Y33	Z33	X34	Y34	Z34	X35	Y35	Z35	X36	Y36	Z36	X37	Y37	Z37	X38	Y38	Z38	X39	Y39	Z39	X40	Y40	Z40	X41	Y41	Z41	X42	Y42	Z42	X43	Y43	Z43	X44	Y44	Z44	X45	Y45	Z45	X46	Y46	Z46	X47	Y47	Z47	X48	Y48	Z48	X49	Y49	Z49	X50	Y50	Z50	X51	Y51	Z51	X52	Y52	Z52	X53	Y53	Z53	X54	Y54	Z54	X55	Y55	Z55	X56	Y56	Z56	X57	Y57	Z57	X58	Y58	Z58	X59	Y59	Z59	X60	Y60	Z60	X61	Y61	Z61	X62	Y62	Z62	X63	Y63	Z63	X64	Y64	Z64	
143	2.367	2460.097956264466	912.4371100000001	-989.329174071539	2519.446934977212	1014.87825	-858.5403783664311	2518.848438786909	1011.4850900000001	-1122.8716737905106	2471.8004291371362	1077.0862	-882.5882896264884	2471.2572155331563	1074.33935	-1100.3013326677196	2409.5705328244176	854.2686300000001	-934.125533811203	2409.2712925049473	852.8144200000002	-1042.906132866522	2393.6010780010592	928.9181700000001	-989.459207905643	2422.742723468675	1019.5640400000001	-989.6853033710329	2417.8555497534285	1130.4073	-988.5409524187455	2399.287619876909	1229.77843	-986.1858376573663	2499.717311565197	1463.74495	-989.5245596875502	2364.774263103426	1413.49386	-980.1771954218223	2377.834279447101	1328.82641	-982.9894888035567	2522.4685070801133	1348.86222	-993.4521661915484	2357.346088625245	1466.97653	-975.8309287703837	2385.9792054775858	1717.42412	-983.6359036186143	2419.6580473387867	1624.8393	-921.6845792890454	2373.2702868239758	1621.12298	-1047.9278272147524	2347.072694086046	1617.40666	-966.5020248997432	2396.3821574002295	1438.37704	-823.7199632530155	2365.3731863560633	1439.99283	-1138.6680177278786	2427.5993392502623	1424.15808	-559.4210430349799	2486.4235398058267	1408.32333	-568.4457371821738	2370.4221593612187	1410.42385	-1407.6498144751322	2431.106341189294	1399.59805	-1404.3050052290937	2472.836646045568	1342.23748	-323.7211926215978	2468.0287389231844	1392.16542	-310.51157636801423	2456.800152555549	1392.327	-573.0376059035892	2321.138339941769	1342.8838	-1637.4286742909003	2310.70417061636	1393.13489	-1644.6653769506206	2404.241095541147	1380.6933	-1399.4675033349747	2511.1007186250536	1329.14957	-128.38815549042855	2498.3024797343596	1304.42797	-217.47322825571055	2491.0060205065647	1340.62169	-285.2975408245979	2301.854723516297	1313.96114	-1829.6362656441445	2314.196901598515	1296.99533	-1738.8257477906973	2326.3537417322173	1338.52116	-1674.9067141872606	2457.068574852063	886.90761	-827.9400908963357	2424.1991609501233	491.3620000000001	-825.9757162642525	2427.1068807563615	484.73726000000005	-902.4663363512814	2468.7168492910387	487.32253000000003	-865.1401441197494	2455.5210984600853	885.6149800000001	-1151.0794147354643	2428.0797713139254	489.90779000000003	-1158.831903669009	2432.7922554320066	481.99042000000003	-1082.4908928888149	2473.6513968204895	485.86832000000004	-1120.579625112989	2477.6611340852005	451.4519700000001	-861.3688411544446	2393.2829502241675	83.85955000000004	-800.0873431533981	2395.7441120788753	78.36586000000005	-860.2334077488996	2482.0458421387034	448.86670000000004	-1124.7461584266707	2391.9749358777844	82.72849000000006	-1186.2447410381847	2395.601676697048	76.75007000000006	-1126.2901482611437	2357.4851298940703	1.9389500000000512	-838.7370620472968	2515.5645471547123	1.7773700000000519	-847.4011771755692	2502.469941687036	-0.1615799999999526	-774.1024413575244	2529.978796767644	0.6463200000000495	-808.1089417127997	2393.9550338822482	4.3626400000000505	-832.1691145583102	2608.412572363161	-0.6463199999999514	-794.0050944785119	2356.8464310803347	7.066088753899301E-14	-1153.9798673085152	2514.8923614774912	-0.16157999999993003	-1142.7101057585978	2503.0006645412805	3.2315800000000747	-1216.33372305661	2530.0199968982156	1.6157900000000724	-1181.9108009118886	2393.499431238833	3.070000000000071	-1159.725592573399	2608.572092795423	1.454210000000073	-1194.587904721369	
144	2.383	2459.9461301277256	912.4371100000001	-989.3844342660962	2519.350363058304	1015.03983	-858.7474775148563	2518.600031334334	1011.4850900000001	-1123.1340365536944	2471.855692751895	1077.0862	-882.740125160155	2471.1053799994897	1074.33935	-1100.3565962824782	2409.3634336759924	854.4302100000001	-934.028961892295	2408.9123578228555	852.9760000000001	-1042.8648245623726	2393.3939822728353	928.9181700000001	-989.3626453836612	2422.5908879350086	1019.5640400000001	-989.7405669857915	2417.910813368187	1130.4073	-988.6927879524119	2399.3428834916676	1229.94001	-986.3376731910329	2500.076246247289	1463.74495	-989.5658679916994	2365.03662586661	1413.65544	-980.4256028743966	2378.1932141291927	1328.98799	-983.0307971077061	2522.730869843297	1348.86222	-993.7005736441231	2357.760286922096	1467.13811	-976.0240726081997	2385.6202707954944	1717.5857	-983.5945953144648	2419.6580473387867	1625.00088	-921.6845792890454	2373.477385972401	1621.28456	-1048.0243991336602	2347.279793234471	1617.24509	-966.5985968186515	2396.9481912307465	1438.53861	-823.8578434760728	2365.732111641229	1440.15441	-1138.7093294522297	2427.958264535428	1424.15808	-559.4623547593304	2486.7824744879185	1408.16175	-568.4870454863234	2370.629258509644	1410.42385	-1407.7463863940407	2431.161604804053	1399.43648	-1404.4568407627603	2472.8919096603267	1341.91432	-323.8730281552642	2468.084002537943	1391.84226	-310.66341190168083	2457.2143508523995	1392.16542	-573.2307497414052	2321.138339941769	1342.56064	-1637.4286742909003	2310.7594342311186	1392.81173	-1644.8172124842872	2404.448194689572	1380.53172	-1399.564075253883	2511.155982239812	1328.66484	-128.53999102409503	2498.2059078154516	1304.10481	-217.68032740413585	2491.0612841213233	1340.13695	-285.4493763582645	2301.399216915297	1313.4764	-1829.80205648842	2313.8379669164233	1296.5106	-1738.7844394865479	2326.201906198551	1338.198	-1674.9619778020192	2456.9167393183966	886.90761	-827.9953545110942	2424.2957328690313	491.52358000000004	-825.7686171158272	2427.258716290028	484.89884000000006	-902.4110727365228	2468.8134212099467	487.48411000000004	-864.9330449713242	2455.31399931166	885.7765600000001	-1150.982842816556	2427.8726721655007	489.90779000000003	-1158.7353317501008	2432.5851562835815	482.15200000000004	-1082.3943209699064	2473.347725753156	485.86832000000004	-1120.6901523425063	2477.7577060041085	451.4519700000001	-861.1617420060194	2393.3795221430755	84.02113000000004	-799.8802440049728	2395.8406839977833	78.36586000000005	-860.0263086004744	2481.838742990278	448.86670000000004	-1124.6495865077625	2391.9749358777844	82.72849000000006	-1186.2447410381847	2395.601676697048	76.75007000000006	-1126.2901482611437	2357.4851298940703	2.1005300000000515	-838.7370620472968	2515.5645471547123	1.938950000000052	-847.4011771755692	2502.469941687036	-0.1615799999999526	-774.1024413575244	2529.978796767644	0.6463200000000495	-808.1089417127997	2393.9550338822482	4.3626400000000505	-832.1691145583102	2608.4678359779195	-0.6463199999999514	-794.1569300121785	2356.8464310803347	7.066088753899301E-14	-1153.9798673085152	2514.8923614774912	-0.16157999999993003	-1142.7101057585978	2503.0006645412805	3.2315800000000747	-1216.33372305661	2530.0199968982156	1.6157900000000724	-1181.9108009118886	2393.499431238833	3.070000000000071	-1159.725592573399	2608.572092795423	1.454210000000073	-1194.587904721369	
145	2.4	2459.739030979301	912.5986900000001	-989.287862347188	2519.350363058304	1015.03983	-858.7474775148563	2518.4481958006672	1011.4850900000001	-1123.189300168453	2471.855692751895	1077.24778	-882.740125160155	2471.0088080805813	1074.17777	-1100.5636954309034	2409.0044989939006	854.4302100000001	-933.9876535881453	2408.7052586744303	852.9760000000001	-1042.7682526434644	2393.2421467391687	929.0797500000001	-989.4179089984198	2422.439052401342	1019.7256200000002	-989.7958306005501	2417.910813368187	1130.56887	-988.6927879524119	2399.549982640093	1230.10159	-986.434245109941	2500.545708158898	1463.74495	-989.9108473631824	2365.3955605487017	1413.81701	-980.4669111785461	2378.400313277618	1329.14957	-983.1273690266139	2523.1450681401475	1348.86222	-993.8937174819391	2358.3263173324112	1467.29969	-976.161943434331	2385.468435261828	1717.74728	-983.6498589292233	2419.6580473387867	1625.16246	-921.6845792890454	2373.6844851208257	1621.44614	-1048.1209710525682	2347.3350534290284	1617.24509	-966.7504229553917	2397.362389527597	1438.53861	-824.0509873138891	2366.1463065178777	1440.31598	-1138.9024638931194	2428.1653636838532	1424.15808	-559.5589266782385	2487.14140917001	1408.00017	-568.5283537904728	2370.684522124402	1410.26227	-1407.8982219277073	2431.3687039524775	1399.2749	-1404.5534126816679	2472.9471732750853	1341.59116	-324.0248636889308	2468.3463653011268	1391.5191	-310.91181935425544	2457.4214406038986	1392.16542	-573.3273250805147	2321.138339941769	1342.23748	-1637.4286742909003	2310.7594342311186	1392.327	-1644.8172124842872	2404.5034583043307	1380.37014	-1399.7159107875495	2511.2112458545707	1328.1801	-128.69182655776174	2498.26117143021	1303.62008	-217.83216293780245	2491.116547736082	1339.81379	-285.6012118919311	2301.0402822332053	1312.83008	-1829.7607481842706	2313.630867767998	1296.02586	-1738.6878675676398	2326.0500706648845	1337.71326	-1675.0172414167778	2456.7649037847295	887.06919	-828.0506181258528	2424.2957328690313	491.52358000000004	-825.7686171158272	2427.4105518236947	484.89884000000006	-902.3558091217643	2468.9652567436133	487.48411000000004	-864.8777813565657	2455.162163777994	885.7765600000001	-1151.0381064313146	2427.720836631834	489.90779000000003	-1158.7905953648594	2432.2262216014897	482.15200000000004	-1082.3530126657572	2473.140626604731	485.86832000000004	-1120.5935804235983	2477.854277923017	451.61355000000003	-860.9546428575942	2393.324258528317	84.18270000000004	-799.7284084713065	2395.7854203830248	78.52744000000006	-859.8744730668076	2481.6869074566116	448.86670000000004	-1124.704850122521	2391.9749358777844	82.72849000000006	-1186.2447410381847	2395.5464165024905	76.75007000000006	-1126.1383221244034	2357.4851298940703	2.1005300000000515	-838.7370620472968	2515.4127116210457	2.100530000000052	-847.4564407903276	2502.469941687036	-0.1615799999999526	-774.1024413575244	2529.978796767644	0.8079000000000495	-808.1089417127997	2393.9550338822482	4.524210000000051	-832.1691145583102	2608.4678359779195	-0.6463199999999514	-794.1569300121785	2356.8464310803347	7.066088753899301E-14	-1153.9798673085152	2514.8923614774912	-0.16157999999993003	-1142.7101057585978	2503.0006645412805	3.2315800000000747	-1216.33372305661	2530.0199968982156	1.6157900000000724	-1181.9108009118886	2393.499431238833	3.070000000000071	-1159.725592573399	2608.572092795423	1.454210000000073	-1194.587904721369	
146	2.417	2459.5871954456343	912.5986900000001	-989.3431259619466	2519.405623252861	1015.20141	-858.8993036515968	2518.1445247333345	1011.3235100000002	-1123.2998273979701	2471.9109563666534	1077.40935	-882.8919606938216	2470.8569725469147	1074.17777	-1100.618959045662	2408.7973998454754	854.5917900000001	-933.8910816692372	2408.29106037758	853.1375800000001	-1042.5751088056486	2393.0350475907435	929.2413300000001	-989.3213370795117	2422.3837887865834	1019.8872000000001	-989.6439950668835	2417.9660769829457	1130.73045	-988.8446234860785	2399.757081788518	1230.10159	-986.530817028849	2501.1117385692132	1463.74495	-990.0487181893135	2365.9615909590166	1413.97859	-980.6047820046775	2378.8145021775417	1329.31115	-983.3205162846315	2523.3521672885727	1348.86222	-993.9902894008471	2358.740515629261	1467.29969	-976.3550872721471	2385.1095005797356	1717.90886	-983.6085506250741	2419.6580473387867	1625.32404	-921.6845792890454	2373.9468478840095	1621.60772	-1048.3693785051428	2347.597416192212	1617.24509	-966.9988304079664	2397.7213207894874	1438.70019	-824.0922862211123	2366.5052411999695	1440.47756	-1138.943772197269	2428.7313975143697	1423.9965	-559.6968069012961	2487.5556074668602	1407.83859	-568.7214976282887	2370.8916212728277	1409.93912	-1407.9947938466153	2431.5758031009027	1398.79016	-1404.649984600576	2473.2095360382687	1341.42958	-324.2732711415054	2468.705299983218	1391.19594	-310.953127658405	2457.835638900749	1392.16542	-573.5204689183308	2320.986504408102	1341.59116	-1637.4839379056589	2310.814697845877	1391.84226	-1644.9690480179538	2404.710557452756	1380.04699	-1399.812482706457	2511.4183415827943	1327.69536	-128.78838907974344	2498.523534193394	1303.29692	-218.08057039037695	2491.3236468845066	1339.65221	-285.6977838108392	2300.6813475511135	1312.02219	-1829.7194398801212	2313.2719330859063	1295.21796	-1738.6465592634904	2326.0500706648845	1337.06695	-1675.0172414167778	2456.5578046363044	887.23077	-827.9540462069448	2424.447568402698	491.68516000000005	-825.7133535010685	2427.562387357361	485.0604200000001	-902.3005455070057	2469.1170922772794	487.64569000000006	-864.8225177418071	2454.9550646295684	885.7765600000001	-1150.941534512407	2427.6655730170755	489.90779000000003	-1158.6387598311928	2432.170957986731	482.15200000000004	-1082.2011771320906	2473.085366410174	485.86832000000004	-1120.4417542868582	2478.0061134566836	451.61355000000003	-860.8993792428356	2393.2689949135583	84.34428000000004	-799.5765729376396	2395.937246519765	78.68902000000006	-859.8192128722505	2481.4798083081864	448.86670000000004	-1124.608278203613	2392.126771411451	82.72849000000006	-1186.189477423426	2395.5464165024905	76.75007000000006	-1126.1383221244034	2357.4851298940703	2.2621100000000514	-838.7370620472968	2515.4127116210457	2.100530000000052	-847.4564407903276	2502.469941687036	-0.1615799999999526	-774.1024413575244	2529.978796767644	0.8079000000000495	-808.1089417127997	2393.9550338822482	4.6857900000000505	-832.1691145583102	2608.4678359779195	-0.6463199999999514	-794.1569300121785	2356.8464310803347	7.066088753899301E-14	-1153.9798673085152	2514.8923614774912	-0.32315999999993006	-1142.7101057585978	2503.0006645412805	3.2315800000000747	-1216.33372305661	2530.0199968982156	1.4542100000000724	-1181.9108009118886	2393.499431238833	3.070000000000071	-1159.725592573399	2608.572092795423	1.292630000000073	-1194.587904721369	
